# xmcd CD database file
#
# Track frame offsets:
#	183
#	8113
#	21943
#	35598
#	47033
#	62035
#	72363
#	84148
#	96778
#	111723
#	123038
#	132805
#	147263
#	156230
#
# Disc length: 2237 seconds
#
# Revision: 0
# Processed by: cddbd v1.4PL0 Copyright (c) Steve Scherf et al.
# Submitted via: CDex 1.50
#
DISCID=bb08bb0e
DTITLE=Willie Nelson - 42 Greatest Country Songs - CD 2
DYEAR=1990
DGENRE=Country
TTITLE0=Things to remember
TTITLE1=Home is where you're hapy
TTITLE2=A moment isn't very long
TTITLE3=Is there somehting on your mind?
TTITLE4=And so will you my love
TTITLE5=Broken promises
TTITLE6=I hope so
TTITLE7=Any old warms won't do
TTITLE8=Face of a fighter
TTITLE9=I'm going to lose a lot of teardrops
TTITLE10=Let's pretend
TTITLE11=What can you do to me now?
TTITLE12=Waiting time
TTITLE13=I'll stay around
EXTD=YEAR: 1990
EXTT0=
EXTT1=
EXTT2=
EXTT3=
EXTT4=
EXTT5=
EXTT6=
EXTT7=
EXTT8=
EXTT9=
EXTT10=
EXTT11=
EXTT12=
EXTT13=
PLAYORDER=
